<?xml version="1.0" standalone="no"?>
<!DOCTYPE svg PUBLIC "-//W3C//DTD SVG 20010904//EN"
 "http://www.w3.org/TR/2001/REC-SVG-20010904/DTD/svg10.dtd">
<svg version="1.0" xmlns="http://www.w3.org/2000/svg"
 width="700.000000pt" height="700.000000pt" viewBox="0 0 700.000000 700.000000"
 preserveAspectRatio="xMidYMid meet">
<metadata>
Created by potrace 1.11, written by Peter Selinger 2001-2013
</metadata>
<g transform="translate(0.000000,700.000000) scale(0.100000,-0.100000)"
fill="#000000" stroke="none">
<path d="M3598 6985 c-204 -33 -384 -116 -541 -250 l-65 -55 -48 15 c-86 25
-275 63 -404 81 -170 23 -440 16 -553 -15 -213 -57 -349 -194 -350 -355 0 -72
21 -127 65 -173 l32 -33 -242 0 -242 0 0 -3095 0 -3095 2260 0 2260 0 0 275 0
275 -1575 0 -1575 0 0 35 0 35 1465 0 1465 0 0 210 0 210 -1465 0 c-1458 0
-1465 0 -1465 20 0 19 7 20 220 20 l220 0 0 605 0 605 146 0 c135 0 146 -1
138 -17 -48 -110 -58 -160 -59 -278 0 -128 11 -176 63 -280 73 -146 213 -261
377 -311 94 -29 259 -24 353 9 98 34 172 80 240 148 189 190 234 466 115 708
-28 57 -57 96 -119 157 l-81 81 41 26 c108 68 265 227 355 360 l32 47 444 0
445 0 0 210 0 210 -345 0 c-322 0 -345 1 -345 18 1 41 4 42 318 44 l303 3
-268 124 c-147 68 -271 127 -275 130 -4 4 1 74 12 156 10 83 22 194 25 248 l7
97 31 0 c47 0 127 42 174 91 81 85 163 283 163 392 0 301 -146 627 -398 888
l-54 57 18 68 c15 54 19 105 19 234 0 143 -3 176 -23 245 -101 350 -370 632
-722 760 -181 65 -417 89 -592 60z m-333 -2074 c44 -12 102 -34 129 -49 100
-54 192 -194 236 -357 24 -86 38 -306 26 -388 l-7 -44 -509 -241 -510 -240 0
675 0 675 278 -4 c248 -4 285 -7 357 -27z m896 -2499 c130 -83 219 -247 219
-406 0 -228 -153 -423 -377 -481 -244 -64 -509 90 -584 339 -38 123 -18 273
50 392 l30 51 103 12 c143 17 323 56 415 90 43 16 83 29 89 30 5 0 30 -12 55
-27z"/>
<path d="M3745 2130 l-219 -220 44 -45 c24 -25 49 -45 55 -45 5 0 108 98 228
218 l217 217 -48 48 c-26 26 -50 47 -52 47 -3 0 -104 -99 -225 -220z"/>
<path d="M3925 1960 l-220 -220 48 -47 47 -48 222 222 223 223 -45 45 c-24 25
-47 45 -50 45 -3 0 -104 -99 -225 -220z"/>
<path d="M4710 1985 l0 -895 300 0 300 0 -2 893 -3 892 -297 3 -298 2 0 -895z"/>
</g>
</svg>
