<svg xmlns:rdf="http://www.w3.org/1999/02/22-rdf-syntax-ns#" xmlns="http://www.w3.org/2000/svg" height="52.9mm" width="106mm" version="1.1" xmlns:cc="http://creativecommons.org/ns#" xmlns:dc="http://purl.org/dc/elements/1.1/" viewBox="0 0 375.00001 187.5">
<title>bill</title>
<metadata>
<rdf:RDF>
<cc:Work rdf:about="">
<dc:format>image/svg+xml</dc:format>
<dc:type rdf:resource="http://purl.org/dc/dcmitype/StillImage"/>
<dc:title>bill</dc:title>
</cc:Work>
</rdf:RDF>
</metadata>
<g transform="translate(-205 -384)">
<path fill="#d7ce1e" d="m205 478v-93.8h375v188h-375v-93.8z"/>
<path fill="#c1b81e" d="m205 478v-93.8h375v188h-375v-93.8zm374 0v-92.8h-373v186h373v-92.8zm-361 0v-81.6h349v163h-349v-81.6zm141 68.9c-28.4-8.31-54.6-31.2-58.4-61.7-3.98-31.3 18.7-60.3 46.8-71.7 4.33-2.81 19.8-6.3 19.4-7.58-46.5-0.0439-92.9-0.0878-139-0.132v144c47-0.0444 94.1-0.0888 141-0.133-3.16-1.04-6.31-2.09-9.47-3.13zm-124-22c-1.65-8.33 0.424-25.7 7.5-12v23.3h34.9c6.06 4.1 12.2 8.98-0.128 7.32-14.1 0.295-28.2 0.135-42.3 0.177v-18.8zm0-95.5v-18.8c17 0.213 34.1-0.581 51 0.771-4.77 4.84-10.1 8.12-17.1 6.73h-26.5v25c-12.5 12.8-5.61-6.83-7.5-13.7zm321 48c-0.354-24 1.05-48.1-0.938-72-46.3-0.612-92.7-0.0126-139 0.0353 29.7 7.53 59.8 28 66.5 59.6 4.18 21.7-3.83 44.6-20.3 59.2-12.7 13.1-30.1 19.7-47.1 25l141-0.383c0.0801-23.8 0.16-47.7 0.24-71.5zm-59.8 66c4.97-3.86 9.89-8.79 16.7-7.19h27.4v-25.1c4.26-2.96 9.44-7.66 7.5 0.912v31.7c-17.2-0.0806-34.4 0.225-51.6-0.313zm47.6-97.9c-6-1.83-2.69-8.65-3.52-13.2-0.985-4.29 2.06-12.6-1.68-14.1-11-0.33-22.4 0.647-33.1-0.476-1.89-2.14-13.7-7.32-6.16-6.59 16-0.0765 32.1-0.547 48.1-0.119 0.429 12.3-0.0784 24.6-0.161 36.9-1.17-0.778-2.34-1.56-3.52-2.33z"/>
</g>
</svg>
