<svg xmlns:rdf="http://www.w3.org/1999/02/22-rdf-syntax-ns#" xmlns="http://www.w3.org/2000/svg" height="1.02e3" width="1.02e3" version="1.1" xmlns:cc="http://creativecommons.org/ns#" xmlns:dc="http://purl.org/dc/elements/1.1/" viewBox="0 0 1024 1024"> <title>PolyBank_logo</title> <g transform="translate(-430 533)"> <g transform="matrix(.825 0 0 .825 169 172)"></g> <g> <g fill="#1f87a0" transform="matrix(.825 0 0 .825 677 -324)"> <path d="m88.6 875v111h506v-111h-506z" transform="matrix(1.31 0 0 .887 -55.6 112)"/> <path d="m88.6 875v111h506v-111h-506z" transform="matrix(1.16 0 0 .673 -5.24 212)"/> <path d="m88.6 875v111h506v-111h-506z" transform="matrix(1.16 0 0 .673 -5.24 -198)"/> <path d="m88.6 875v111h506v-111h-506z" transform="matrix(0 -.626 .962 0 -307 850)"/> <path d="m88.6 875v111h506v-111h-506z" transform="matrix(0 -.626 .962 0 -705 850)"/> <path d="m677 380h-285l-285-.00001 142-247 142-247 142 247z" transform="matrix(1 0 0 .271 -1.94 277)"/> </g> <circle cx="999" cy="198" r="90" fill="#e2a800"/> <circle cy="198" cx="999" r="71.7" fill="#eed175"/> </g> <g fill="#e2a800" transform="matrix(.825 0 0 .825 677 -323)"> <path d="m88.6 875v111h506v-111h-506z" transform="matrix(.157 -.157 .162 .162 201 550)"/> <path d="m88.6 875v111h506v-111h-506z" transform="matrix(.157 -.157 .162 .162 170 520)"/> </g> <g> <path fill="#2f3772" d="m613-416c117 .395 234-.809 350 .636 65.6 2.04 137 37.4 170 123 32 83.9 32.8 188 10.8 277-22.4 88.1-83.2 147-147 160-60.9 14.8-123 7.29-184 9.13v336h-200v-906zm200 386c43.5-2.3 92 10.1 130-27.8 40.6-44.8 25.5-152-26-167-33.9-11.7-69-6.08-103-7.42v202z"/> <path d="m980-533a163 148 18.4 0 0 -115 50.6 316 125 28.5 0 1 149 62.5 316 125 28.5 0 1 131 92.3 163 148 18.4 0 0 -76.5 -183 163 148 18.4 0 0 -89.1 -22.3z" fill="#196c81"/> <path d="m761-503c-42.3.438-71.9 12.2-85 33.8-15.1 25.3-3.28 44.9 7.27 53.2 230 2.17 260 46.7 300 70.8 48 34.6 161 111 176 224 42.7-.32 53.3-65.4 53.3-65.4 2.55-72.2-41.5-152-194-237-91.4-50.5-188-80.2-257-79.5z" fill="#2085a0"/> </g> </g> </svg> 